<mxfile host="app.diagrams.net" modified="2023-08-13T14:46:54.725Z" agent="Mozilla/5.0 (Macintosh; Intel Mac OS X 10_15_7) AppleWebKit/537.36 (KHTML, like Gecko) Chrome/112.0.0.0 YaBrowser/23.5.4.696 Yowser/2.5 Safari/537.36" etag="_BPe9hSSySnfNSPy3Pra" version="21.6.7" type="device">
  <diagram id="2riD3-JbWSZt0VzAZHZp" name="Page-1">
    <mxGraphModel dx="702" dy="456" grid="1" gridSize="10" guides="1" tooltips="1" connect="1" arrows="1" fold="1" page="1" pageScale="1" pageWidth="827" pageHeight="1169" math="0" shadow="0">
      <root>
        <mxCell id="0" />
        <mxCell id="1" parent="0" />
        <mxCell id="nLc23-uQMYyiLS7j9zMm-4" value="" style="rounded=0;whiteSpace=wrap;html=1;aspect=fixed;fillColor=default;glass=0;strokeColor=none;" vertex="1" parent="1">
          <mxGeometry x="241.11" y="300" width="497.78" height="280" as="geometry" />
        </mxCell>
        <mxCell id="0R7pQaaEaHYw-Zy2l5Sx-2" value="Алгоритм" style="rounded=0;whiteSpace=wrap;html=1;fillColor=#ffe6cc;strokeColor=#d79b00;" parent="1" vertex="1">
          <mxGeometry x="280" y="360" width="120" height="40" as="geometry" />
        </mxCell>
        <mxCell id="0R7pQaaEaHYw-Zy2l5Sx-3" value="Шаг 0" style="rounded=0;whiteSpace=wrap;html=1;fillColor=#dae8fc;strokeColor=#6c8ebf;" parent="1" vertex="1">
          <mxGeometry x="400" y="360" width="90" height="40" as="geometry" />
        </mxCell>
        <mxCell id="0R7pQaaEaHYw-Zy2l5Sx-4" value="Шаг 1" style="rounded=0;whiteSpace=wrap;html=1;fillColor=#dae8fc;strokeColor=#6c8ebf;" parent="1" vertex="1">
          <mxGeometry x="490" y="360" width="90" height="40" as="geometry" />
        </mxCell>
        <mxCell id="0R7pQaaEaHYw-Zy2l5Sx-5" value="..." style="text;html=1;strokeColor=none;fillColor=none;align=center;verticalAlign=middle;whiteSpace=wrap;rounded=0;" parent="1" vertex="1">
          <mxGeometry x="580" y="360" width="30" height="40" as="geometry" />
        </mxCell>
        <mxCell id="0R7pQaaEaHYw-Zy2l5Sx-6" value="Шаг N" style="rounded=0;whiteSpace=wrap;html=1;fillColor=#dae8fc;strokeColor=#6c8ebf;" parent="1" vertex="1">
          <mxGeometry x="610" y="360" width="90" height="40" as="geometry" />
        </mxCell>
        <mxCell id="0R7pQaaEaHYw-Zy2l5Sx-7" value="" style="shape=curlyBracket;whiteSpace=wrap;html=1;rounded=1;rotation=90;" parent="1" vertex="1">
          <mxGeometry x="482.5" y="142.5" width="15" height="420" as="geometry" />
        </mxCell>
        <mxCell id="0R7pQaaEaHYw-Zy2l5Sx-8" value="Вселенная" style="text;html=1;strokeColor=none;fillColor=none;align=center;verticalAlign=middle;whiteSpace=wrap;rounded=0;" parent="1" vertex="1">
          <mxGeometry x="435" y="320" width="110" height="30" as="geometry" />
        </mxCell>
        <mxCell id="0R7pQaaEaHYw-Zy2l5Sx-9" value="1100110110101..." style="text;html=1;strokeColor=none;fillColor=none;align=center;verticalAlign=middle;whiteSpace=wrap;rounded=0;" parent="1" vertex="1">
          <mxGeometry x="280" y="400" width="120" height="30" as="geometry" />
        </mxCell>
        <mxCell id="0R7pQaaEaHYw-Zy2l5Sx-10" value="010111..." style="text;html=1;strokeColor=none;fillColor=none;align=center;verticalAlign=middle;whiteSpace=wrap;rounded=0;" parent="1" vertex="1">
          <mxGeometry x="400" y="400" width="90" height="30" as="geometry" />
        </mxCell>
        <mxCell id="0R7pQaaEaHYw-Zy2l5Sx-11" value="000111..." style="text;html=1;strokeColor=none;fillColor=none;align=center;verticalAlign=middle;whiteSpace=wrap;rounded=0;" parent="1" vertex="1">
          <mxGeometry x="490" y="400" width="90" height="30" as="geometry" />
        </mxCell>
        <mxCell id="0R7pQaaEaHYw-Zy2l5Sx-12" value="101001..." style="text;html=1;strokeColor=none;fillColor=none;align=center;verticalAlign=middle;whiteSpace=wrap;rounded=0;" parent="1" vertex="1">
          <mxGeometry x="610" y="400" width="90" height="30" as="geometry" />
        </mxCell>
        <mxCell id="0R7pQaaEaHYw-Zy2l5Sx-13" value="" style="shape=curlyBracket;whiteSpace=wrap;html=1;rounded=1;rotation=-90;" parent="1" vertex="1">
          <mxGeometry x="482.5" y="220" width="15" height="420" as="geometry" />
        </mxCell>
        <mxCell id="0R7pQaaEaHYw-Zy2l5Sx-14" value="192210245201000011020201...00002526453795909791 &lt;font style=&quot;font-size: 15px;&quot;&gt;∈ ℕ&lt;/font&gt;&lt;br&gt; " style="text;html=1;strokeColor=none;fillColor=none;align=center;verticalAlign=middle;whiteSpace=wrap;rounded=0;" parent="1" vertex="1">
          <mxGeometry x="305" y="430" width="370" height="30" as="geometry" />
        </mxCell>
        <mxCell id="nLc23-uQMYyiLS7j9zMm-2" value="Все натуральные числа существуют, следовательно все&lt;br style=&quot;font-size: 14px;&quot;&gt;вселенные уже просимулированы и существуют в виде чисел." style="text;html=1;align=center;verticalAlign=middle;resizable=0;points=[];autosize=1;strokeColor=none;fillColor=none;fontColor=#000000;fontStyle=2;fontSize=14;" vertex="1" parent="1">
          <mxGeometry x="270" y="512.5" width="440" height="50" as="geometry" />
        </mxCell>
      </root>
    </mxGraphModel>
  </diagram>
</mxfile>
